<mxfile host="app.diagrams.net" modified="2023-08-08T19:09:02.070Z" agent="Mozilla/5.0 (Windows NT 10.0; Win64; x64) AppleWebKit/537.36 (KHTML, like Gecko) Chrome/115.0.0.0 Safari/537.36" etag="hKpGgmkBvwbRTQeYv1wV" version="21.6.7" type="device">
  <diagram name="Pagina-1" id="8y657HBjVXf3H2ojvI5x">
    <mxGraphModel dx="1195" dy="658" grid="1" gridSize="10" guides="1" tooltips="1" connect="1" arrows="1" fold="1" page="1" pageScale="1" pageWidth="827" pageHeight="1169" math="0" shadow="0">
      <root>
        <mxCell id="0" />
        <mxCell id="1" parent="0" />
        <mxCell id="CdcabsOZv6A9RvAW17S2-13" value="" style="group;fontSize=12;" vertex="1" connectable="0" parent="1">
          <mxGeometry x="20" y="260" width="775" height="100" as="geometry" />
        </mxCell>
        <mxCell id="CdcabsOZv6A9RvAW17S2-1" value="&lt;font style=&quot;font-size: 14px;&quot;&gt;RUNTIME&lt;br&gt;STARTUP&lt;/font&gt;" style="rounded=0;whiteSpace=wrap;html=1;fillColor=#dae8fc;strokeColor=#6c8ebf;" vertex="1" parent="CdcabsOZv6A9RvAW17S2-13">
          <mxGeometry y="12.5" width="150" height="75" as="geometry" />
        </mxCell>
        <mxCell id="CdcabsOZv6A9RvAW17S2-2" value="FUNCTION&lt;br style=&quot;font-size: 14px;&quot;&gt;INIT" style="rounded=0;whiteSpace=wrap;html=1;fillColor=#fff2cc;strokeColor=#d6b656;fontStyle=0;fontSize=14;" vertex="1" parent="CdcabsOZv6A9RvAW17S2-13">
          <mxGeometry x="150" y="12.5" width="150" height="75" as="geometry" />
        </mxCell>
        <mxCell id="CdcabsOZv6A9RvAW17S2-5" value="&lt;font style=&quot;font-size: 14px;&quot;&gt;RUNTIME&lt;br&gt;SHUTDOWN&lt;/font&gt;" style="whiteSpace=wrap;html=1;rounded=0;fillColor=#dae8fc;strokeColor=#6c8ebf;" vertex="1" parent="CdcabsOZv6A9RvAW17S2-13">
          <mxGeometry x="625" y="12.5" width="150" height="75" as="geometry" />
        </mxCell>
        <mxCell id="CdcabsOZv6A9RvAW17S2-10" value="" style="group" vertex="1" connectable="0" parent="CdcabsOZv6A9RvAW17S2-13">
          <mxGeometry x="375" width="175" height="100" as="geometry" />
        </mxCell>
        <mxCell id="CdcabsOZv6A9RvAW17S2-3" value="CODE&lt;br&gt;EXECUTION" style="whiteSpace=wrap;html=1;rounded=0;fillColor=#fff2cc;strokeColor=#d6b656;" vertex="1" parent="CdcabsOZv6A9RvAW17S2-10">
          <mxGeometry width="150" height="75" as="geometry" />
        </mxCell>
        <mxCell id="CdcabsOZv6A9RvAW17S2-7" value="CODE&lt;br&gt;EXECUTION" style="whiteSpace=wrap;html=1;rounded=0;fillColor=#fff2cc;strokeColor=#d6b656;" vertex="1" parent="CdcabsOZv6A9RvAW17S2-10">
          <mxGeometry x="12.5" y="12.5" width="150" height="75" as="geometry" />
        </mxCell>
        <mxCell id="CdcabsOZv6A9RvAW17S2-8" value="&lt;font style=&quot;font-size: 14px;&quot;&gt;CODE&lt;br&gt;EXECUTION&lt;/font&gt;" style="whiteSpace=wrap;html=1;rounded=0;fillColor=#fff2cc;strokeColor=#d6b656;" vertex="1" parent="CdcabsOZv6A9RvAW17S2-10">
          <mxGeometry x="25" y="25" width="150" height="75" as="geometry" />
        </mxCell>
        <mxCell id="CdcabsOZv6A9RvAW17S2-11" value="" style="endArrow=classic;html=1;rounded=0;" edge="1" parent="CdcabsOZv6A9RvAW17S2-13">
          <mxGeometry width="50" height="50" relative="1" as="geometry">
            <mxPoint x="312.5" y="50" as="sourcePoint" />
            <mxPoint x="362.5" y="50" as="targetPoint" />
          </mxGeometry>
        </mxCell>
        <mxCell id="CdcabsOZv6A9RvAW17S2-12" value="" style="endArrow=classic;html=1;rounded=0;" edge="1" parent="CdcabsOZv6A9RvAW17S2-13">
          <mxGeometry width="50" height="50" relative="1" as="geometry">
            <mxPoint x="562.5" y="49.69999999999999" as="sourcePoint" />
            <mxPoint x="612.5" y="49.69999999999999" as="targetPoint" />
          </mxGeometry>
        </mxCell>
      </root>
    </mxGraphModel>
  </diagram>
</mxfile>
